<?xml version="1.0" encoding="utf-8" standalone="yes"?>
<!DOCTYPE svg PUBLIC "-//W3C//DTD SVG 1.1//EN" "http://www.w3.org/Graphics/SVG/1.1/DTD/svg11.dtd">
<svg width="672" height="408" viewBox="0 0 672 408" style="fill:none;stroke:none;fill-rule:evenodd;clip-rule:evenodd;stroke-linecap:round;stroke-linejoin:round;stroke-miterlimit:1.5;" version="1.1" xmlns="http://www.w3.org/2000/svg" xmlns:xlink="http://www.w3.org/1999/xlink"><style class="text-font-style fontImports" data-font-family="Roboto">@import url(https://fonts.googleapis.com/css2?family=Roboto:wght@400;700&amp;amp;display=block);</style><g id="items" style="isolation: isolate"><g id="blend" style="mix-blend-mode: normal"><g id="g-root-ro_1ly0nct1xzdte3-fill" data-item-order="-23400" transform="translate(242, 113)"><g id="ro_1ly0nct1xzdte3-fill-merged" stroke="none" fill="url(#gradient-64edab-240055791)"><g><path d="M34 10 H142C142 10 166 10 166 34 V136C166 136 166 160 142 160 H34C34 160 10 160 10 136 V34C10 34 10 10 34 10"></path></g></g></g><g id="g-root-ro_mgpkjh1xzhz47-fill" data-item-order="-9720" transform="translate(14, 20)"><g id="ro_mgpkjh1xzhz47-fill-merged" stroke="none" fill="url(#gradient-d98afd-525750490)"><g><path d="M22 10 H178C178 10 190 10 190 22 V52C190 52 190 64 178 64 H22C22 64 10 64 10 52 V22C10 22 10 10 22 10"></path></g></g></g><g id="g-root-ro_1usepfh1xzgkcj-fill" data-item-order="-8424" transform="translate(446, 2)"><g id="ro_1usepfh1xzgkcj-fill-merged" stroke="none" fill="url(#gradient-ffeb37-386795387)"><g><path d="M22 10 H154C154 10 166 10 166 22 V52C166 52 166 64 154 64 H22C22 64 10 64 10 52 V22C10 22 10 10 22 10"></path></g></g></g><g id="g-root-ro_zqannh1xzhyj0-fill" data-item-order="-8424" transform="translate(38, 230)"><g id="ro_zqannh1xzhyj0-fill-merged" stroke="none" fill="url(#gradient-fcaa5f-123734360)"><g><path d="M22 10 H154C154 10 166 10 166 22 V52C166 52 166 64 154 64 H22C22 64 10 64 10 52 V22C10 22 10 10 22 10"></path></g></g></g><g id="g-root-ro_de7ccd1xzi1hi-fill" data-item-order="-8424" transform="translate(446, 212)"><defs><linearGradient id="gradient-64edab-240055791" x2="0" y2="1"><stop offset="0" stop-color="#83fac1"></stop><stop offset="1" stop-color="#44e095"></stop></linearGradient><linearGradient id="gradient-d98afd-525750490" x2="0" y2="1"><stop offset="0" stop-color="#e4a9ff"></stop><stop offset="1" stop-color="#cd6afb"></stop></linearGradient><linearGradient id="gradient-ffeb37-386795387" x2="0" y2="1"><stop offset="0" stop-color="#ffef63"></stop><stop offset="1" stop-color="#ffe60a"></stop></linearGradient><linearGradient id="gradient-fcaa5f-123734360" x2="0" y2="1"><stop offset="0" stop-color="#ffbf84"></stop><stop offset="1" stop-color="#f99539"></stop></linearGradient><linearGradient id="gradient-76aaff-163240667" x2="0" y2="1"><stop offset="0" stop-color="#9cc2ff"></stop><stop offset="1" stop-color="#4f92ff"></stop></linearGradient></defs><g id="ro_de7ccd1xzi1hi-fill-merged" stroke="none" fill="url(#gradient-76aaff-163240667)"><g><path d="M22 10 H154C154 10 166 10 166 22 V52C166 52 166 64 154 64 H22C22 64 10 64 10 52 V22C10 22 10 10 22 10"></path></g></g></g><g id="g-root-tx_servidor_1qaps1p1xzhzin-fill" data-item-order="0" transform="translate(494, 278)"><g id="tx_servidor_1qaps1p1xzhzin-fill-merged" stroke="none" fill="#484848"><g><text style="font: 15px Roboto, sans-serif; white-space: pre;" font-size="15px" font-family="Roboto, sans-serif"><tspan x="12" y="30.6" dominant-baseline="ideographic">Servidor Web</tspan></text></g></g></g><g id="g-root-cu_1q5pzct1xzje9v-fill" data-item-order="0" transform="translate(194, 47)"></g><g id="g-root-tx_copiasde_1448qil1xzhzi9-fill" data-item-order="0" transform="translate(494, 350)"><g id="tx_copiasde_1448qil1xzhzi9-fill-merged" stroke="none" fill="#484848"><g><text style="font: 15px Roboto, sans-serif; white-space: pre;" font-size="15px" font-family="Roboto, sans-serif"><tspan x="12" y="30.6" dominant-baseline="ideographic">Copias de seguridad</tspan></text></g></g></g><g id="g-root-cu_zjffp91xzjf28-fill" data-item-order="0" transform="translate(470, 56)"></g><g id="g-root-cu_qnsfgd1xzjfuz-fill" data-item-order="0" transform="translate(470, 56)"></g><g id="g-root-cu_qnsfgd1xzjfv1-fill" data-item-order="0" transform="translate(470, 56)"></g><g id="g-root-tx_navegado_142db991xzi0ht-fill" data-item-order="0" transform="translate(62, 86)"><g id="tx_navegado_142db991xzi0ht-fill-merged" stroke="none" fill="#484848"><g><text style="font: 15px Roboto, sans-serif; white-space: pre;" font-size="15px" font-family="Roboto, sans-serif"><tspan x="19.44" y="30.6" dominant-baseline="ideographic">Navegador</tspan></text></g></g></g><g id="g-root-cu_18f2fy51xzjdhl-fill" data-item-order="0" transform="translate(152, 74)"></g><g id="g-root-cu_13z8xtp1xzje9w-fill" data-item-order="0" transform="translate(152, 74)"></g><g id="g-root-cu_13z8xtp1xzje9y-fill" data-item-order="0" transform="translate(152, 74)"></g><g id="g-root-tx_antiviru_hvw9q51xzhzpo-fill" data-item-order="0" transform="translate(494, 68)"><g id="tx_antiviru_hvw9q51xzhzpo-fill-merged" stroke="none" fill="#484848"><g><text style="font: 15px Roboto, sans-serif; white-space: pre;" font-size="15px" font-family="Roboto, sans-serif"><tspan x="12" y="30.6" dominant-baseline="ideographic">Antivirus</tspan></text></g></g></g><g id="g-root-tx_compreso_4kfrct1xzi1al-fill" data-item-order="0" transform="translate(494, 104)"><g id="tx_compreso_4kfrct1xzi1al-fill-merged" stroke="none" fill="#484848"><g><text style="font: 15px Roboto, sans-serif; white-space: pre;" font-size="15px" font-family="Roboto, sans-serif"><tspan x="12" y="30.6" dominant-baseline="ideographic">Compresores</tspan></text></g></g></g><g id="g-root-tx_editorde_v6qb0d1xzi1ai-fill" data-item-order="0" transform="translate(38, 122)"><g id="tx_editorde_v6qb0d1xzi1ai-fill-merged" stroke="none" fill="#484848"><g><text style="font: 15px Roboto, sans-serif; white-space: pre;" font-size="15px" font-family="Roboto, sans-serif"><tspan x="19.63" y="30.6" dominant-baseline="ideographic">Editor de texto</tspan></text></g></g></g><g id="g-root-tx_drivers_1hdttml1xzhyww-fill" data-item-order="0" transform="translate(86, 332)"><g id="tx_drivers_1hdttml1xzhyww-fill-merged" stroke="none" fill="#484848"><g><text style="font: 15px Roboto, sans-serif; white-space: pre;" font-size="15px" font-family="Roboto, sans-serif"><tspan x="21.48" y="30.6" dominant-baseline="ideographic">Drivers</tspan></text></g></g></g><g id="g-root-tx_limpieza_58qbh1xzhyx2-fill" data-item-order="0" transform="translate(494, 140)"><g id="tx_limpieza_58qbh1xzhyx2-fill-merged" stroke="none" fill="#484848"><g><text style="font: 15px Roboto, sans-serif; white-space: pre;" font-size="15px" font-family="Roboto, sans-serif"><tspan x="12" y="30.6" dominant-baseline="ideographic">Limpieza</tspan></text></g></g></g><g id="g-root-tx_juegos_qrj9z11xzhywz-fill" data-item-order="0" transform="translate(86, 158)"><g id="tx_juegos_qrj9z11xzhywz-fill-merged" stroke="none" fill="#484848"><g><text style="font: 15px Roboto, sans-serif; white-space: pre;" font-size="15px" font-family="Roboto, sans-serif"><tspan x="18.77" y="30.6" dominant-baseline="ideographic">Juegos</tspan></text></g></g></g><g id="g-root-cu_1uljhh91xzjdhk-fill" data-item-order="0" transform="translate(194, 213)"></g><g id="g-root-cu_1lpwh8d1xzjf29-fill" data-item-order="0" transform="translate(398, 213)"></g><g id="g-root-cu_1q5pzct1xzje9y-fill" data-item-order="0" transform="translate(398, 29)"></g><g id="g-root-tx_basededa_1hf2rst1xzi134-fill" data-item-order="0" transform="translate(494, 314)"><g id="tx_basededa_1hf2rst1xzi134-fill-merged" stroke="none" fill="#484848"><g><text style="font: 15px Roboto, sans-serif; white-space: pre;" font-size="15px" font-family="Roboto, sans-serif"><tspan x="12" y="30.6" dominant-baseline="ideographic">Base de Datos</tspan></text></g></g></g><g id="g-root-cu_m8lef11xzjdhj-fill" data-item-order="0" transform="translate(470, 266)"></g><g id="g-root-cu_hsrwal1xzje9u-fill" data-item-order="0" transform="translate(470, 266)"></g><g id="g-root-cu_hsrwal1xzje9w-fill" data-item-order="0" transform="translate(470, 266)"></g><g id="g-root-tx_sistemao_3db251xzhzwn-fill" data-item-order="0" transform="translate(14, 296)"><g id="tx_sistemao_3db251xzhzwn-fill-merged" stroke="none" fill="#484848"><g><text style="font: 15px Roboto, sans-serif; white-space: pre;" font-size="15px" font-family="Roboto, sans-serif"><tspan x="17.89" y="30.6" dominant-baseline="ideographic">Sistema Operativo</tspan></text></g></g></g><g id="g-root-cu_1lpwh8d1xzjf2c-fill" data-item-order="0" transform="translate(152, 284)"></g><g id="g-root-cu_1cu9gzh1xzjfv3-fill" data-item-order="0" transform="translate(152, 284)"></g><g id="g-root-tx_aplicaci_147d3y51xzhzwt-fill" data-item-order="1000000000" transform="translate(26, 35)"><g id="tx_aplicaci_147d3y51xzhzwt-fill-merged" stroke="none" fill="#484848"><g><text style="font: 20px Roboto, sans-serif; white-space: pre;" font-size="20px" font-family="Roboto, sans-serif"><tspan x="13.94" y="34" dominant-baseline="ideographic">Aplicaciones</tspan></text></g></g></g><g id="g-root-ic_1_qvwlkt1xzi1hq-fill" data-item-order="1000000000" transform="translate(152, 32)"></g><g id="g-root-tx_utilidad_mdl73x1xzgkjl-fill" data-item-order="1000000000" transform="translate(494, 17)"><g id="tx_utilidad_mdl73x1xzgkjl-fill-merged" stroke="none" fill="#484848"><g><text style="font: 20px Roboto, sans-serif; white-space: pre;" font-size="20px" font-family="Roboto, sans-serif"><tspan x="12" y="34" dominant-baseline="ideographic">Utilidades</tspan></text></g></g></g><g id="g-root-ic_scri_1utnnlp1xzdsle-fill" data-item-order="1000000000" transform="translate(296, 137)"></g><g id="g-root-tx_tiposdep_9403zx1xzdr7l-fill" data-item-order="1000000000" transform="translate(266, 191)"><g id="tx_tiposdep_9403zx1xzdr7l-fill-merged" stroke="none" fill="#484848"><g><text style="font: 20px Roboto, sans-serif; white-space: pre;" font-size="20px" font-family="Roboto, sans-serif"><tspan x="25.69" y="34" dominant-baseline="ideographic">Tipos de </tspan><tspan x="15.07" y="58" dominant-baseline="ideographic">Programas</tspan></text></g></g></g><g id="g-root-ic_serv_qpnupp1xzhzwl-fill" data-item-order="1000000000" transform="translate(458, 224)"></g><g id="g-root-tx_servicio_140hvzx1xzi1hg-fill" data-item-order="1000000000" transform="translate(494, 227)"><g id="tx_servicio_140hvzx1xzi1hg-fill-merged" stroke="none" fill="#484848"><g><text style="font: 20px Roboto, sans-serif; white-space: pre;" font-size="20px" font-family="Roboto, sans-serif"><tspan x="12" y="34" dominant-baseline="ideographic">Servicios</tspan></text></g></g></g><g id="g-root-tx_sistemas_1qcl7b11xzhyiy-fill" data-item-order="1000000000" transform="translate(50, 245)"><g id="tx_sistemas_1qcl7b11xzhyiy-fill-merged" stroke="none" fill="#484848"><g><text style="font: 20px Roboto, sans-serif; white-space: pre;" font-size="20px" font-family="Roboto, sans-serif"><tspan x="21.05" y="34" dominant-baseline="ideographic">Sistemas</tspan></text></g></g></g><g id="g-root-ic_2_18lb6t91xzi0w3-fill" data-item-order="1000000000" transform="translate(152, 242)"></g><g id="g-root-ic_2_6hohp1xzgmx6-fill" data-item-order="1000000000" transform="translate(458, 14)"></g><g id="g-root-ro_1ly0nct1xzdte3-stroke" data-item-order="-23400" transform="translate(242, 113)"><g id="ro_1ly0nct1xzdte3-stroke" fill="none" stroke-linecap="round" stroke-linejoin="round" stroke-miterlimit="4" stroke="#44e095" stroke-width="2"><g><path d="M 34 10L 142 10C 142 10 166 10 166 34L 166 136C 166 136 166 160 142 160L 34 160C 34 160 10 160 10 136L 10 34C 10 34 10 10 34 10"></path></g></g></g><g id="g-root-ro_mgpkjh1xzhz47-stroke" data-item-order="-9720" transform="translate(14, 20)"><g id="ro_mgpkjh1xzhz47-stroke" fill="none" stroke-linecap="round" stroke-linejoin="round" stroke-miterlimit="4" stroke="#484848" stroke-width="2"><g><path d="M 22 10L 178 10C 178 10 190 10 190 22L 190 52C 190 52 190 64 178 64L 22 64C 22 64 10 64 10 52L 10 22C 10 22 10 10 22 10"></path></g></g></g><g id="g-root-ro_1usepfh1xzgkcj-stroke" data-item-order="-8424" transform="translate(446, 2)"><g id="ro_1usepfh1xzgkcj-stroke" fill="none" stroke-linecap="round" stroke-linejoin="round" stroke-miterlimit="4" stroke="#484848" stroke-width="2"><g><path d="M 22 10L 154 10C 154 10 166 10 166 22L 166 52C 166 52 166 64 154 64L 22 64C 22 64 10 64 10 52L 10 22C 10 22 10 10 22 10"></path></g></g></g><g id="g-root-ro_zqannh1xzhyj0-stroke" data-item-order="-8424" transform="translate(38, 230)"><g id="ro_zqannh1xzhyj0-stroke" fill="none" stroke-linecap="round" stroke-linejoin="round" stroke-miterlimit="4" stroke="#484848" stroke-width="2"><g><path d="M 22 10L 154 10C 154 10 166 10 166 22L 166 52C 166 52 166 64 154 64L 22 64C 22 64 10 64 10 52L 10 22C 10 22 10 10 22 10"></path></g></g></g><g id="g-root-ro_de7ccd1xzi1hi-stroke" data-item-order="-8424" transform="translate(446, 212)"><g id="ro_de7ccd1xzi1hi-stroke" fill="none" stroke-linecap="round" stroke-linejoin="round" stroke-miterlimit="4" stroke="#484848" stroke-width="2"><g><path d="M 22 10L 154 10C 154 10 166 10 166 22L 166 52C 166 52 166 64 154 64L 22 64C 22 64 10 64 10 52L 10 22C 10 22 10 10 22 10"></path></g></g></g><g id="g-root-tx_servidor_1qaps1p1xzhzin-stroke" data-item-order="0" transform="translate(494, 278)"></g><g id="g-root-cu_1q5pzct1xzje9v-stroke" data-item-order="0" transform="translate(194, 47)"><g id="cu_1q5pzct1xzje9v-stroke" fill="none" stroke-linecap="round" stroke-linejoin="round" stroke-miterlimit="4" stroke="#484848" stroke-width="2" stroke-dasharray="5.0, 7.0"><g><path d="M 58 126L 55 126L 54.9 126C 43.357245 125.999994 33.999996 116.642746 33.999997 105.099995L 34 105L 34 30.9C 33.999998 19.357248 24.64275 10 13.1 10L 13 10L 10 10"></path></g></g></g><g id="g-root-tx_copiasde_1448qil1xzhzi9-stroke" data-item-order="0" transform="translate(494, 350)"></g><g id="g-root-cu_zjffp91xzjf28-stroke" data-item-order="0" transform="translate(470, 56)"><g id="cu_zjffp91xzjf28-stroke" fill="none" stroke-linecap="round" stroke-linejoin="round" stroke-miterlimit="4" stroke="#484848" stroke-width="2" stroke-dasharray="5.0, 7.0"><g><path d="M 10 10L 10 22L 10 34L 19 34L 28 34"></path></g></g></g><g id="g-root-cu_qnsfgd1xzjfuz-stroke" data-item-order="0" transform="translate(470, 56)"><g id="cu_qnsfgd1xzjfuz-stroke" fill="none" stroke-linecap="round" stroke-linejoin="round" stroke-miterlimit="4" stroke="#484848" stroke-width="2" stroke-dasharray="5.0, 7.0"><g><path d="M 10 10L 10 40L 10 70L 19 70L 28 70"></path></g></g></g><g id="g-root-cu_qnsfgd1xzjfv1-stroke" data-item-order="0" transform="translate(470, 56)"><g id="cu_qnsfgd1xzjfv1-stroke" fill="none" stroke-linecap="round" stroke-linejoin="round" stroke-miterlimit="4" stroke="#484848" stroke-width="2" stroke-dasharray="5.0, 7.0"><g><path d="M 10 10L 10 22L 10 94C 10.000004 100.627423 15.372587 106.000006 22.000005 106.000005L 22.1 106L 28 106"></path></g></g></g><g id="g-root-tx_navegado_142db991xzi0ht-stroke" data-item-order="0" transform="translate(62, 86)"></g><g id="g-root-cu_18f2fy51xzjdhl-stroke" data-item-order="0" transform="translate(152, 74)"><g id="cu_18f2fy51xzjdhl-stroke" fill="none" stroke-linecap="round" stroke-linejoin="round" stroke-miterlimit="4" stroke="#484848" stroke-width="2" stroke-dasharray="5.0, 7.0"><g><path d="M 28 10L 28 22L 28 34L 19 34L 10 34"></path></g></g></g><g id="g-root-cu_13z8xtp1xzje9w-stroke" data-item-order="0" transform="translate(152, 74)"><g id="cu_13z8xtp1xzje9w-stroke" fill="none" stroke-linecap="round" stroke-linejoin="round" stroke-miterlimit="4" stroke="#484848" stroke-width="2" stroke-dasharray="5.0, 7.0"><g><path d="M 28 10L 28 40L 28 70L 19 70L 10 70"></path></g></g></g><g id="g-root-cu_13z8xtp1xzje9y-stroke" data-item-order="0" transform="translate(152, 74)"><g id="cu_13z8xtp1xzje9y-stroke" fill="none" stroke-linecap="round" stroke-linejoin="round" stroke-miterlimit="4" stroke="#484848" stroke-width="2" stroke-dasharray="5.0, 7.0"><g><path d="M 28 10L 28 22L 28 94C 28.000002 100.627415 22.627419 105.999998 16.000002 105.999998L 15.9 106L 10 106"></path></g></g></g><g id="g-root-tx_antiviru_hvw9q51xzhzpo-stroke" data-item-order="0" transform="translate(494, 68)"></g><g id="g-root-tx_compreso_4kfrct1xzi1al-stroke" data-item-order="0" transform="translate(494, 104)"></g><g id="g-root-tx_editorde_v6qb0d1xzi1ai-stroke" data-item-order="0" transform="translate(38, 122)"></g><g id="g-root-tx_drivers_1hdttml1xzhyww-stroke" data-item-order="0" transform="translate(86, 332)"></g><g id="g-root-tx_limpieza_58qbh1xzhyx2-stroke" data-item-order="0" transform="translate(494, 140)"></g><g id="g-root-tx_juegos_qrj9z11xzhywz-stroke" data-item-order="0" transform="translate(86, 158)"></g><g id="g-root-cu_1uljhh91xzjdhk-stroke" data-item-order="0" transform="translate(194, 213)"><g id="cu_1uljhh91xzjdhk-stroke" fill="none" stroke-linecap="round" stroke-linejoin="round" stroke-miterlimit="4" stroke="#484848" stroke-width="2" stroke-dasharray="5.0, 7.0"><g><path d="M 58 10L 55 10L 54.9 10C 43.357248 10.000001 33.999999 19.357249 33.999999 30.9L 34 31L 34 33.1C 34.000002 44.642753 24.642753 54.000003 13.100001 54.000003L 13 54L 10 54"></path></g></g></g><g id="g-root-cu_1lpwh8d1xzjf29-stroke" data-item-order="0" transform="translate(398, 213)"><g id="cu_1lpwh8d1xzjf29-stroke" fill="none" stroke-linecap="round" stroke-linejoin="round" stroke-miterlimit="4" stroke="#484848" stroke-width="2" stroke-dasharray="5.0, 7.0"><g><path d="M 10 10L 13 10L 13.1 10C 17.015943 9.997798 21.265956 11.207151 25.400001 13.5C 27.874528 14.874798 30.964908 18.288591 33.999998 23C 37.035089 27.711409 40.125469 31.125202 42.599998 32.5C 46.734045 34.79285 50.984058 36.002203 54.900002 36.000001L 55 36L 58 36"></path></g></g></g><g id="g-root-cu_1q5pzct1xzje9y-stroke" data-item-order="0" transform="translate(398, 29)"><g id="cu_1q5pzct1xzje9y-stroke" fill="none" stroke-linecap="round" stroke-linejoin="round" stroke-miterlimit="4" stroke="#484848" stroke-width="2" stroke-dasharray="5.0, 7.0"><g><path d="M 10 144L 13 144L 13.1 144C 24.642746 144.000005 33.999995 134.642756 33.999996 123.100005L 34 123L 34 30.9C 33.999999 19.357249 43.357248 10.000001 54.899999 10.000002L 55 10L 58 10"></path></g></g></g><g id="g-root-tx_basededa_1hf2rst1xzi134-stroke" data-item-order="0" transform="translate(494, 314)"></g><g id="g-root-cu_m8lef11xzjdhj-stroke" data-item-order="0" transform="translate(470, 266)"><g id="cu_m8lef11xzjdhj-stroke" fill="none" stroke-linecap="round" stroke-linejoin="round" stroke-miterlimit="4" stroke="#484848" stroke-width="2" stroke-dasharray="5.0, 7.0"><g><path d="M 10 10L 10 22L 10 34L 19 34L 28 34"></path></g></g></g><g id="g-root-cu_hsrwal1xzje9u-stroke" data-item-order="0" transform="translate(470, 266)"><g id="cu_hsrwal1xzje9u-stroke" fill="none" stroke-linecap="round" stroke-linejoin="round" stroke-miterlimit="4" stroke="#484848" stroke-width="2" stroke-dasharray="5.0, 7.0"><g><path d="M 10 10L 10 40L 10 70L 19 70L 28 70"></path></g></g></g><g id="g-root-cu_hsrwal1xzje9w-stroke" data-item-order="0" transform="translate(470, 266)"><g id="cu_hsrwal1xzje9w-stroke" fill="none" stroke-linecap="round" stroke-linejoin="round" stroke-miterlimit="4" stroke="#484848" stroke-width="2" stroke-dasharray="5.0, 7.0"><g><path d="M 10 10L 10 22L 10 94C 10.000004 100.627423 15.372587 106.000006 22.000005 106.000005L 22.1 106L 28 106"></path></g></g></g><g id="g-root-tx_sistemao_3db251xzhzwn-stroke" data-item-order="0" transform="translate(14, 296)"></g><g id="g-root-cu_1lpwh8d1xzjf2c-stroke" data-item-order="0" transform="translate(152, 284)"><g id="cu_1lpwh8d1xzjf2c-stroke" fill="none" stroke-linecap="round" stroke-linejoin="round" stroke-miterlimit="4" stroke="#484848" stroke-width="2" stroke-dasharray="5.0, 7.0"><g><path d="M 28 10L 28 22L 28 34L 19 34L 10 34"></path></g></g></g><g id="g-root-cu_1cu9gzh1xzjfv3-stroke" data-item-order="0" transform="translate(152, 284)"><g id="cu_1cu9gzh1xzjfv3-stroke" fill="none" stroke-linecap="round" stroke-linejoin="round" stroke-miterlimit="4" stroke="#484848" stroke-width="2" stroke-dasharray="5.0, 7.0"><g><path d="M 28 10L 28 17.5L 28 58C 27.999999 64.627415 22.627416 69.999998 16 69.999998L 15.9 70L 10 70"></path></g></g></g><g id="g-root-tx_aplicaci_147d3y51xzhzwt-stroke" data-item-order="1000000000" transform="translate(26, 35)"></g><g id="g-root-ic_1_qvwlkt1xzi1hq-stroke" data-item-order="1000000000" transform="translate(152, 32)"><g id="ic_1_qvwlkt1xzi1hq-stroke" fill="none" stroke-linecap="round" stroke-linejoin="round" stroke-miterlimit="4" stroke="#484848" stroke-width="2"><g><path d="M 25.312374 30.1875C 30.628126 30.1875 34.937374 25.87825 34.937374 20.5625C 34.937374 15.24675 30.628126 10.9375 25.312374 10.9375C 19.996662 10.9375 15.687412 15.24675 15.687412 20.5625C 15.687412 25.87825 19.996662 30.1875 25.312374 30.1875ZM 10 10M 39.062378 34.312748L 32.062374 27.43775M 18.4375 36.5625C 18.4375 37.9375 17.3125 39.0625 15.9375 39.0625L 13.4375 39.0625C 12.0625 39.0625 10.9375 37.9375 10.9375 36.5625L 10.9375 34.0625C 10.9375 32.6875 12.0625 31.5625 13.4375 31.5625L 15.9375 31.5625C 17.3125 31.5625 18.4375 32.6875 18.4375 34.0625L 18.4375 36.5625ZM 29.9375 34.0625L 29.9375 36.5625C 29.9375 37.9375 28.8125 39.0625 27.4375 39.0625L 24.9375 39.0625C 23.5625 39.0625 22.437437 37.9375 22.437437 36.5625L 22.437437 34.0625M 13.4375 26.187C 12.0625 26.187 10.9375 25.062 10.9375 23.687L 10.9375 21.187C 10.9375 20.437 11.3125 19.687012 11.9375 19.187012M 29.9375 22.43775C 29.9375 23.81275 28.8125 24.93775 27.4375 24.93775L 23.0625 24.93775C 21.687437 24.93775 20.562437 23.81275 20.562437 22.43775L 20.562437 18.06275C 20.562437 16.68775 21.687437 15.56275 23.0625 15.56275L 27.4375 15.56275C 28.8125 15.56275 29.9375 16.68775 29.9375 18.06275L 29.9375 22.43775Z"></path></g></g></g><g id="g-root-tx_utilidad_mdl73x1xzgkjl-stroke" data-item-order="1000000000" transform="translate(494, 17)"></g><g id="g-root-ic_scri_1utnnlp1xzdsle-stroke" data-item-order="1000000000" transform="translate(296, 137)"><g id="ic_scri_1utnnlp1xzdsle-stroke" fill="none" stroke-linecap="round" stroke-linejoin="round" stroke-miterlimit="4" stroke="#484848" stroke-width="2"><g><path d="M 13 11L 55 11C 55 11 57 11 57 13L 57 55C 57 55 57 57 55 57L 13 57C 13 57 11 57 11 55L 11 13C 11 13 11 11 13 11M 41 46C 41 48.761425 43.238575 51 46 51C 48.761425 51 51 48.761425 51 46C 51 43.240002 49 42 46 41C 43 40 41 38.760002 41 36C 41 33.238579 43.238575 31 46 31C 48.761425 31 51 33.238579 51 36M 24 31L 36 31M 30 31L 30 51"></path></g></g></g><g id="g-root-tx_tiposdep_9403zx1xzdr7l-stroke" data-item-order="1000000000" transform="translate(266, 191)"></g><g id="g-root-ic_serv_qpnupp1xzhzwl-stroke" data-item-order="1000000000" transform="translate(458, 224)"><g id="ic_serv_qpnupp1xzhzwl-stroke" fill="none" stroke-linecap="round" stroke-linejoin="round" stroke-miterlimit="4" stroke="#484848" stroke-width="2"><g><path d="M 10.625 16.940001L 23.125 21.0825L 23.125 39.314999L 10.7075 35ZM 26.875 39.375L 39.375 35L 39.375 17.05625L 26.875 21.022499ZM 24.987499 18.168751L 38.16375 14.54875L 24.987499 10.80125L 11.99 14.35375L 24.987499 18.168751Z"></path></g></g></g><g id="g-root-tx_servicio_140hvzx1xzi1hg-stroke" data-item-order="1000000000" transform="translate(494, 227)"></g><g id="g-root-tx_sistemas_1qcl7b11xzhyiy-stroke" data-item-order="1000000000" transform="translate(50, 245)"></g><g id="g-root-ic_2_18lb6t91xzi0w3-stroke" data-item-order="1000000000" transform="translate(152, 242)"><g id="ic_2_18lb6t91xzi0w3-stroke" fill="none" stroke-linecap="round" stroke-linejoin="round" stroke-miterlimit="4" stroke="#484848" stroke-width="2"><g><path d="M 19.6875 27.8125C 20.723038 27.8125 21.5625 26.973 21.5625 25.9375C 21.5625 24.902 20.723038 24.0625 19.6875 24.0625C 18.651962 24.0625 17.8125 24.902 17.8125 25.9375C 17.8125 26.973 18.651962 27.8125 19.6875 27.8125ZM 24.6875 22.1875C 25.723 22.1875 26.5625 21.348038 26.5625 20.3125C 26.5625 19.276962 25.723 18.4375 24.6875 18.4375C 23.652 18.4375 22.8125 19.276962 22.8125 20.3125C 22.8125 21.348038 23.652 22.1875 24.6875 22.1875ZM 24.6875 22.1875L 24.6875 32.1875M 29.6875 27.8125C 30.723 27.8125 31.5625 26.973 31.5625 25.9375C 31.5625 24.902 30.723 24.0625 29.6875 24.0625C 28.652 24.0625 27.8125 24.902 27.8125 25.9375C 27.8125 26.973 28.652 27.8125 29.6875 27.8125ZM 35.3125 33.4375C 35.3125 34.8125 34.1875 35.9375 32.8125 35.9375L 16.5625 35.9375C 15.1875 35.9375 14.0625 34.8125 14.0625 33.4375L 14.0625 17.1875C 14.0625 15.8125 15.1875 14.6875 16.5625 14.6875L 32.8125 14.6875C 34.1875 14.6875 35.3125 15.8125 35.3125 17.1875L 35.3125 33.4375ZM 10.9375 16.5625L 14.140625 16.5625M 10.9375 22.1875L 14.0625 22.1875M 10.9375 27.8125L 14.0625 27.8125M 35.3125 22.1875L 39.0625 22.1875M 35.3125 27.8125L 39.0625 27.8125M 10.9375 33.4375L 14.0625 33.4375M 10 10M 39.0625 16.5625L 35.23175 16.5625M 39.0625 33.4375L 35.3125 33.4375M 29.6875 27.8125L 29.6875 32.1875M 19.6875 27.8125L 19.6875 32.1875M 10 10M 33.4375 39.062248L 33.4375 35.860249M 27.8125 39.0625L 27.8125 35.9375M 22.1875 39.0625L 22.1875 35.9375M 27.8125 14.6875L 27.8125 10.9375M 22.1875 14.6875L 22.1875 10.9375M 16.5625 39.0625L 16.5625 35.9375M 33.4375 10.9375L 33.4375 14.765625M 16.5625 10.9375L 16.5625 14.6875"></path></g></g></g><g id="g-root-ic_2_6hohp1xzgmx6-stroke" data-item-order="1000000000" transform="translate(458, 14)"><g id="ic_2_6hohp1xzgmx6-stroke" fill="none" stroke-linecap="round" stroke-linejoin="round" stroke-miterlimit="4" stroke="#484848" stroke-width="2"><g><path d="M 19.6875 34.187626C 20.3125 34.187626 20.8125 33.937626 21.1875 33.562626C 21.5625 33.187626 21.8125 32.5625 21.8125 32.0625L 21.8125 25.437624C 23.4375 24.687626 24.6875 22.937624 24.6875 20.937561C 24.6875 18.812563 23.4375 17.062563 21.5625 16.312563L 21.5625 16.562563L 21.5625 19.687563C 21.5625 20.687563 20.6875 21.562561 19.6875 21.562561C 18.6875 21.562561 17.8125 20.687563 17.8125 19.687563L 17.8125 16.562563L 17.8125 16.312563C 15.9375 17.062563 14.6875 18.812563 14.6875 20.937561C 14.6875 22.937624 15.8125 24.562624 17.5625 25.437624L 17.5625 32.0625C 17.4375 33.1875 18.4375 34.187626 19.6875 34.187626ZM 10.9375 13.4375C 10.9375 12.0625 12.0625 10.9375 13.4375 10.9375L 36.5625 10.9375C 37.9375 10.9375 39.0625 12.0625 39.0625 13.4375L 39.0625 36.5625C 39.0625 37.9375 37.9375 39.0625 36.5625 39.0625L 13.4375 39.0625C 12.0625 39.0625 10.9375 37.9375 10.9375 36.5625L 10.9375 13.4375ZM 15.9375 28.0625L 23.4375 28.0625M 33.4375 31.8125C 33.4375 33.0625 32.4375 33.9375 31.3125 33.9375C 30.0625 33.9375 29.1875 32.9375 29.1875 31.8125L 29.1875 24.9375L 33.4375 24.9375L 33.4375 31.8125ZM 31.3125 24.9375L 31.3125 16.312563M 27.1875 29.9375L 35.3125 29.9375"></path></g></g></g></g></g></svg>